<svg width="20" height="18" viewBox="0 0 20 18" xmlns="http://www.w3.org/2000/svg"><path d="M14.125.75A5.49 5.49 0 0 0 10 2.666 5.49 5.49 0 0 0 5.875.75C3.052.75.833 2.968.833 5.792c0 3.465 3.117 6.288 7.838 10.578l1.33 1.2 1.33-1.21c4.72-4.28 7.837-7.103 7.837-10.568 0-2.824-2.22-5.042-5.042-5.042zm-4.033 14.254l-.092.092-.092-.092c-4.363-3.95-7.24-6.563-7.24-9.212 0-1.834 1.374-3.21 3.207-3.21 1.412 0 2.787.91 3.273 2.165h1.714c.476-1.256 1.85-2.164 3.263-2.164 1.833 0 3.208 1.375 3.208 3.21 0 2.648-2.878 5.26-7.24 9.21z" fill="#FFF" fill-rule="evenodd"/></svg>