<?xml version="1.0" encoding="UTF-8" standalone="no"?>
<svg width="17px" height="17px" viewBox="0 0 17 17" version="1.1" xmlns="http://www.w3.org/2000/svg" xmlns:xlink="http://www.w3.org/1999/xlink" xmlns:sketch="http://www.bohemiancoding.com/sketch/ns">
    <!-- Generator: Sketch 3.4.4 (17249) - http://www.bohemiancoding.com/sketch -->
    <title>icon-1034</title>
    <desc>Created with Sketch.</desc>
    <defs></defs>
    <g id="Page-1" stroke="none" stroke-width="1" fill="none" fill-rule="evenodd" sketch:type="MSPage">
        <g id="Desktop" sketch:type="MSArtboardGroup" transform="translate(-1171.000000, -609.000000)" fill="#202020">
            <g id="icon-1034" sketch:type="MSLayerGroup" transform="translate(1171.000000, 609.000000)">
                <g id="Capa_1" sketch:type="MSShapeGroup">
                    <g id="fullscreen_x5F_alt">
                        <g id="Group">
                            <path d="M15.6261875,14.1238125 L12.127375,10.625 L10.625,12.127375 L14.1238125,15.6261875 L12.75,17 L17,17 L17,12.75 L15.6261875,14.1238125 Z" id="Shape"></path>
                            <path d="M1.3738125,2.8761875 L4.872625,6.375 L6.375,4.872625 L2.8761875,1.3738125 L4.25,0 L0,0 L0,4.25 L1.3738125,2.8761875 Z" id="Shape"></path>
                            <path d="M14.1238125,1.3738125 L10.625,4.872625 L12.127375,6.375 L15.6261875,2.8761875 L17,4.25 L17,0 L12.75,0 L14.1238125,1.3738125 Z" id="Shape"></path>
                            <path d="M6.375,12.127375 L4.872625,10.625 L1.3738125,14.1238125 L0,12.75 L0,17 L4.25,17 L2.8761875,15.6261875 L6.375,12.127375 Z" id="Shape"></path>
                        </g>
                    </g>
                </g>
            </g>
        </g>
    </g>
</svg>