<?xml version="1.0" encoding="UTF-8" standalone="no"?>
<svg width="20px" height="18px" viewBox="0 0 20 18" version="1.1" xmlns="http://www.w3.org/2000/svg" xmlns:xlink="http://www.w3.org/1999/xlink" xmlns:sketch="http://www.bohemiancoding.com/sketch/ns">
    <!-- Generator: Sketch 3.4.4 (17249) - http://www.bohemiancoding.com/sketch -->
    <title>Shape</title>
    <desc>Created with Sketch.</desc>
    <defs></defs>
    <g id="Page-1" stroke="none" stroke-width="1" fill="none" fill-rule="evenodd" sketch:type="MSPage">
        <g id="Desktop" sketch:type="MSArtboardGroup" transform="translate(-1016.000000, -609.000000)" fill="#FFFFFF">
            <g id="ic_favorite_border_black_24px" sketch:type="MSLayerGroup" transform="translate(1015.000000, 607.000000)">
                <g id="Group" sketch:type="MSShapeGroup">
                    <path d="M15.125,2.75 C13.53,2.75 11.9991667,3.4925 11,4.66583333 C10.0008333,3.4925 8.47,2.75 6.875,2.75 C4.05166667,2.75 1.83333333,4.96833333 1.83333333,7.79166667 C1.83333333,11.2566667 4.95,14.08 9.67083333,18.37 L11,19.5708333 L12.3291667,18.3608333 C17.05,14.08 20.1666667,11.2566667 20.1666667,7.79166667 C20.1666667,4.96833333 17.9483333,2.75 15.125,2.75 L15.125,2.75 Z M11.0916667,17.0041667 L11,17.0958333 L10.9083333,17.0041667 C6.545,13.0533333 3.66666667,10.4408333 3.66666667,7.79166667 C3.66666667,5.95833333 5.04166667,4.58333333 6.875,4.58333333 C8.28666667,4.58333333 9.66166667,5.49083333 10.1475,6.74666667 L11.8616667,6.74666667 C12.3383333,5.49083333 13.7133333,4.58333333 15.125,4.58333333 C16.9583333,4.58333333 18.3333333,5.95833333 18.3333333,7.79166667 C18.3333333,10.4408333 15.455,13.0533333 11.0916667,17.0041667 L11.0916667,17.0041667 Z" id="Shape"></path>
                </g>
            </g>
        </g>
    </g>
</svg>