<?xml version="1.0" encoding="UTF-8" standalone="no"?>
<svg width="16px" height="16px" viewBox="0 0 16 16" version="1.1" xmlns="http://www.w3.org/2000/svg" xmlns:xlink="http://www.w3.org/1999/xlink" xmlns:sketch="http://www.bohemiancoding.com/sketch/ns">
    <!-- Generator: Sketch 3.4.4 (17249) - http://www.bohemiancoding.com/sketch -->
    <title>ic_collections_black_24px</title>
    <desc>Created with Sketch.</desc>
    <defs></defs>
    <g id="Page-1" stroke="none" stroke-width="1" fill="none" fill-rule="evenodd" sketch:type="MSPage">
        <g id="Desktop" sketch:type="MSArtboardGroup" transform="translate(-1066.000000, -610.000000)">
            <g id="ic_collections_black_24px" sketch:type="MSLayerGroup" transform="translate(1062.000000, 605.000000)">
                <g id="Group" sketch:type="MSShapeGroup">
                    <path d="M0,0 L24,0 L24,24 L0,24 L0,0 Z" id="Shape"></path>
                    <path d="M20,16.2 L20,6.6 C20,5.72 19.28,5 18.4,5 L8.8,5 C7.92,5 7.2,5.72 7.2,6.6 L7.2,16.2 C7.2,17.08 7.92,17.8 8.8,17.8 L18.4,17.8 C19.28,17.8 20,17.08 20,16.2 L20,16.2 Z M11.2,13 L12.824,15.168 L15.2,12.2 L18.4,16.2 L8.8,16.2 L11.2,13 L11.2,13 Z M4,8.2 L4,19.4 C4,20.28 4.72,21 5.6,21 L16.8,21 L16.8,19.4 L5.6,19.4 L5.6,8.2 L4,8.2 L4,8.2 Z" id="Shape" fill="#202020"></path>
                </g>
            </g>
        </g>
    </g>
</svg>