<?xml version="1.0" encoding="UTF-8" standalone="no"?>
<svg width="18px" height="18px" viewBox="0 0 18 18" version="1.1" xmlns="http://www.w3.org/2000/svg" xmlns:xlink="http://www.w3.org/1999/xlink" xmlns:sketch="http://www.bohemiancoding.com/sketch/ns">
    <!-- Generator: Sketch 3.4.4 (17249) - http://www.bohemiancoding.com/sketch -->
    <title>ic_info_outline_black_24px (1)</title>
    <desc>Created with Sketch.</desc>
    <defs></defs>
    <g id="Page-1" stroke="none" stroke-width="1" fill="none" fill-rule="evenodd" sketch:type="MSPage">
        <g id="Desktop" sketch:type="MSArtboardGroup" transform="translate(-1118.000000, -608.000000)">
            <g id="ic_info_outline_black_24px-(1)" sketch:type="MSLayerGroup" transform="translate(1117.000000, 607.000000)">
                <g id="Group" sketch:type="MSShapeGroup">
                    <path d="M0,0 L20,0 L20,20 L0,20 L0,0 Z" id="Shape"></path>
                    <path d="M9.16666667,14.1666667 L10.8333333,14.1666667 L10.8333333,9.16666667 L9.16666667,9.16666667 L9.16666667,14.1666667 L9.16666667,14.1666667 Z M10,1.66666667 C5.4,1.66666667 1.66666667,5.4 1.66666667,10 C1.66666667,14.6 5.4,18.3333333 10,18.3333333 C14.6,18.3333333 18.3333333,14.6 18.3333333,10 C18.3333333,5.4 14.6,1.66666667 10,1.66666667 L10,1.66666667 Z M10,16.6666667 C6.325,16.6666667 3.33333333,13.675 3.33333333,10 C3.33333333,6.325 6.325,3.33333333 10,3.33333333 C13.675,3.33333333 16.6666667,6.325 16.6666667,10 C16.6666667,13.675 13.675,16.6666667 10,16.6666667 L10,16.6666667 Z M9.16666667,7.5 L10.8333333,7.5 L10.8333333,5.83333333 L9.16666667,5.83333333 L9.16666667,7.5 L9.16666667,7.5 Z" id="Shape" fill="#202020"></path>
                </g>
            </g>
        </g>
    </g>
</svg>