<svg xmlns="http://www.w3.org/2000/svg" width="40" height="40" viewBox="0 0 40 40"><path d="M13.935 28.238c3.28 0 6.23-1.156 8.606-3.058l14.02 14.134c.326.332.736.497 1.145.497.41 0 .82-.164 1.147-.496.656-.66.656-1.65 0-2.312L24.918 22.865c1.886-2.397 2.95-5.373 2.95-8.68 0-7.77-6.23-14.05-13.934-14.05C6.23.134 0 6.414 0 14.184S6.312 28.24 13.935 28.24zm0-24.798c5.902 0 10.656 4.794 10.656 10.746 0 5.952-4.753 10.747-10.655 10.747S3.28 20.138 3.28 14.186c0-5.95 4.835-10.746 10.655-10.746z"/></svg>