<?xml version="1.0" encoding="utf-8"?>
<!-- Generator: Adobe Illustrator 16.0.0, SVG Export Plug-In . SVG Version: 6.00 Build 0)  -->
<!DOCTYPE svg PUBLIC "-//W3C//DTD SVG 1.1//EN" "http://www.w3.org/Graphics/SVG/1.1/DTD/svg11.dtd">
<svg version="1.1" id="Layer_1" xmlns="http://www.w3.org/2000/svg" xmlns:xlink="http://www.w3.org/1999/xlink" x="0px" y="0px"
	 width="40px" height="40px" viewBox="0 0 40 40" enable-background="new 0 0 40 40" xml:space="preserve">
<path fill="#FFFFFF" d="M13.935,28.238c3.28,0,6.23-1.156,8.606-3.059l14.02,14.135c0.326,0.332,0.736,0.496,1.146,0.496
	c0.41,0,0.819-0.164,1.147-0.496c0.655-0.659,0.655-1.649,0-2.312L24.918,22.865c1.887-2.397,2.95-5.373,2.95-8.68
	c0-7.77-6.229-14.05-13.934-14.05C6.23,0.134,0,6.414,0,14.184S6.312,28.24,13.935,28.24V28.238z M13.935,3.44
	c5.902,0,10.656,4.794,10.656,10.746s-4.753,10.748-10.655,10.748S3.28,20.138,3.28,14.186C3.28,8.236,8.115,3.44,13.935,3.44z"/>
</svg>
